<svg xmlns="http://www.w3.org/2000/svg" id="successful-voting" viewBox="0 0 96 96">
  <circle id="circle3934-5-9_10_" cx="48" cy="48" r="48" fill="#259dd8"></circle>
  <path fill="#fff" d="M73.4 61.1c-.1-.1-.2-.1-.3-.1H66V24.5c0-.3-.2-.5-.5-.5h-45c-.3 0-.5.2-.5.5v42c0 .1 0 .2.1.2.3 2.7 2.5 4.9 5.2 5.2H70.7c3-.3 5.3-2.9 5.3-6 0-1.8-1-3.7-2.6-4.8zM21 66V25h44v36H29.1c-.2 0-.4.1-.5.3-.1.2 0 .4.2.6 1.3.9 2.1 2.5 2.1 4.1 0 .4 0 .7-.1 1.1-.4 2.3-2.5 3.9-4.8 3.9-2.8 0-5-2.2-5-5zm49 5H29.3c1.3-.8 2.2-2.1 2.6-3.7.1-.4.2-.9.2-1.3 0-1.5-.6-2.9-1.5-4H73c1.3.9 2 2.4 2 4 0 2.8-2.2 5-5 5z"></path>
  <path fill="#fff" d="M38.2 51.8c.5.5 1.1.7 1.8.7s1.3-.3 1.8-.7l12-12c.5-.5.7-1.1.7-1.8s-.3-1.3-.7-1.8c-1-1-2.6-1-3.5 0L40 46.5l-4.2-4.2c-.9-.9-2.6-.9-3.5 0-.5.5-.7 1.1-.7 1.8s.3 1.3.7 1.8l5.9 5.9zm-5.3-8.9c.3-.3.7-.4 1.1-.4s.8.2 1.1.4l4.9 4.9 10.9-10.9c.6-.6 1.5-.6 2.1 0 .3.3.4.7.4 1.1s-.2.8-.4 1.1l-12 12c-.6.6-1.6.6-2.1 0l-6-6c-.3-.3-.4-.7-.4-1.1s.2-.8.4-1.1z"></path>
</svg>
